{"accessors":[{"bufferView":0,"componentType":5126,"count":4008004,"max":[5000.0,0.0,5000.0],"min":[-5000.08984375,0.0,-5000.08984375],"normalized":false,"type":"VEC3"},{"bufferView":1,"componentType":5126,"count":4008004,"max":[1.0,0.0,-1.5259021893143654e-05,1.0],"min":[1.0,0.0,-1.5259021893143654e-05,1.0],"normalized":false,"type":"VEC4"},{"bufferView":2,"componentType":5126,"count":4008004,"max":[0.0,1.0,-1.5259021893143654e-05],"min":[0.0,1.0,-1.5259021893143654e-05],"normalized":false,"type":"VEC3"},{"bufferView":3,"componentType":5126,"count":4008004,"max":[1.0,1.0],"min":[0.0,0.0],"normalized":false,"type":"VEC2"},{"bufferView":4,"componentType":5125,"count":24024006,"max":[4008003],"min":[0],"normalized":false,"type":"SCALAR"}],"asset":{"generator":"Godot Engine v4.6.stable.mono.official@89cea143987d564363e15d207438530651d943ac","version":"2.0"},"bufferViews":[{"buffer":0,"byteLength":48096048,"byteStride":12,"target":34962},{"buffer":0,"byteLength":64128064,"byteOffset":48096048,"byteStride":16,"target":34962},{"buffer":0,"byteLength":48096048,"byteOffset":112224112,"byteStride":12,"target":34962},{"buffer":0,"byteLength":32064032,"byteOffset":160320160,"byteStride":8,"target":34962},{"buffer":0,"byteLength":96096024,"byteOffset":192384192,"target":34963}],"buffers":[{"byteLength":288480216,"uri":"mar0.bin"}],"extensionsUsed":["GODOT_single_root"],"materials":[{}],"meshes":[{"primitives":[{"attributes":{"NORMAL":2,"POSITION":0,"TANGENT":1,"TEXCOORD_0":3},"indices":4,"material":0,"mode":4}]}],"nodes":[{"mesh":0,"name":"mar"}],"scene":0,"scenes":[{"nodes":[0]}]}