<?xml version="1.0" encoding="UTF-8" standalone="no"?>
<svg
   width="16"
   height="16"
   version="1.1"
   id="svg2"
   sodipodi:docname="CSGGeneratorIcon.svg"
   xml:space="preserve"
   inkscape:version="1.4.2 (ebf0e94, 2025-05-08)"
   xmlns:inkscape="http://www.inkscape.org/namespaces/inkscape"
   xmlns:sodipodi="http://sodipodi.sourceforge.net/DTD/sodipodi-0.dtd"
   xmlns="http://www.w3.org/2000/svg"
   xmlns:svg="http://www.w3.org/2000/svg"><defs
     id="defs2" /><sodipodi:namedview
     id="namedview2"
     pagecolor="#505050"
     bordercolor="#ffffff"
     borderopacity="1"
     inkscape:showpageshadow="0"
     inkscape:pageopacity="0"
     inkscape:pagecheckerboard="1"
     inkscape:deskcolor="#505050"
     inkscape:zoom="50.6875"
     inkscape:cx="7.8520345"
     inkscape:cy="8.7694205"
     inkscape:window-width="1920"
     inkscape:window-height="1020"
     inkscape:window-x="0"
     inkscape:window-y="0"
     inkscape:window-maximized="1"
     inkscape:current-layer="svg2" /><path
     fill="#5fb2ff"
     d="m 12,9 a 1,1 0 0 0 -1,1 v 1 h 2 v 2 h 1 a 1,1 0 0 0 1,-1 V 10 A 1,1 0 0 0 14,9 Z m 1,4 h -2 v -2 h -1 a 1,1 0 0 0 -1,1 v 2 a 1,1 0 0 0 1,1 h 2 a 1,1 0 0 0 1,-1 z"
     id="path1"
     style="display:none" /><path
     fill="#fc7f7f"
     d="M3 1a2 2 0 0 0-2 2h2zm2 0v2h2V1zm4 0v2h2V1zm4 0v2h2a2 2 0 0 0-2-2zM1 5v2h2V5zm12 0v2h2V5zM1 9v2h2V9zm0 4a2 2 0 0 0 2 2v-2zm4 0v2h2v-2z"
     id="path2" /><path
     fill="#e0e0e0"
     d="m 10.067227,8.0437731 -0.5,1 0.5,0.9999999 v 2 h -1 v 1.75 a 1.25,1.25 0 0 0 2.5,0 v -1.75 h -1 v -2 l 0.5,-0.9999999 -0.5,-1 z m 3,0.087 a 1.5,1.5 0 0 0 0,2.8259999 v 3.587 a 0.5,0.5 0 0 0 0.999999,0 v -3.588 a 1.5,1.5 0 0 0 0,-2.8239999 v 1.412 a 0.5,0.5 0 0 1 -0.999999,0 z"
     id="path1-3"
     style="stroke-width:0.5;fill:#5fb2ff;fill-opacity:1" /></svg>
